<svg width="512" height="512" viewBox="0 0 512 512" fill="none" xmlns="http://www.w3.org/2000/svg">
<path d="M318.461 391.306C315.044 402.192 304.953 409.6 293.543 409.6C275.906 409.6 263.34 392.484 268.623 375.658L348.67 120.695C352.089 109.808 362.178 102.4 373.59 102.4C391.225 102.4 403.791 119.517 398.508 136.342L318.461 391.306Z" fill="url(#paint0_linear_133_35)"/>
<path d="M241.194 368.614C234.99 388.373 231.887 398.253 224.161 403.927C216.432 409.6 206.077 409.6 185.366 409.6H175.543C147.959 409.6 134.167 409.6 125.598 401.031C117.028 392.462 117.028 378.67 117.028 351.086V160.915C117.028 133.331 117.028 119.539 125.598 110.97C134.167 102.4 147.959 102.4 175.543 102.4H245.072C281.518 102.4 299.739 102.4 308.508 114.343C317.276 126.286 311.817 143.671 300.901 178.443L241.194 368.614Z" fill="url(#paint1_linear_133_35)"/>
<defs>
<linearGradient id="paint0_linear_133_35" x1="159.5" y1="19" x2="446.5" y2="410" gradientUnits="userSpaceOnUse">
<stop stop-color="#A98EC5"/>
<stop offset="1" stop-color="#8235D3"/>
</linearGradient>
<linearGradient id="paint1_linear_133_35" x1="159.5" y1="19" x2="446.5" y2="410" gradientUnits="userSpaceOnUse">
<stop stop-color="#A98EC5"/>
<stop offset="1" stop-color="#8235D3"/>
</linearGradient>
</defs>
</svg>
