<svg width="24" height="24" viewBox="0 0 24 24" fill="none" xmlns="http://www.w3.org/2000/svg">
<path d="M16.2242 3.41247C17.3181 2.26656 19.1339 2.22484 20.2798 3.31872C21.4256 4.41261 21.4674 6.22755 20.3736 7.37341L15.9586 11.9974L20.3746 16.6234C21.4681 17.7693 21.4256 19.5853 20.2798 20.6791C19.1339 21.7727 17.318 21.7302 16.2242 20.5843L11.9927 16.1517L7.76324 20.5843C6.66939 21.7302 4.85349 21.7728 3.70757 20.6791C2.56166 19.5852 2.51994 17.7693 3.61382 16.6234L8.02789 11.9984L3.61382 7.37438C2.51997 6.22853 2.56181 4.41263 3.70757 3.31872C4.85347 2.22482 6.66934 2.26657 7.76324 3.41247L11.9937 7.84411L16.2242 3.41247Z" fill="#E55F5F"/>
</svg>
